<svg width="845" height="460" viewBox="0 0 845 460" fill="none" xmlns="http://www.w3.org/2000/svg">
<path d="M542.382 91.3937C542.815 91.3937 543.357 91.6352 543.827 92.3594C541.731 89.0199 546.176 90.4684 546.429 87.2898C548.958 85.1977 548.055 83.8297 548.777 83.7492L549.572 83.025C548.019 83.6687 547.477 83.7895 547.043 83.7895H546.32C545.778 83.7895 544.875 83.9102 542.743 84.6344C537.865 85.0367 534.36 90.9109 532.698 91.0719C531 92.0777 531.072 92.2789 531.47 92.2789C531.578 92.2789 531.723 92.2387 531.867 92.2387C532.012 92.2387 532.12 92.1984 532.229 92.1984C532.626 92.1984 532.518 92.3996 530.205 93.6066C530.747 93.7676 526.158 96.0207 526.122 99.5613C525.978 100.929 526.483 101.855 527.314 101.855C528.037 101.855 528.94 101.251 529.916 99.7223C533.168 95.5379 540.033 95.1355 542.996 92.6008C541.153 92.4398 541.515 91.3937 542.382 91.3937ZM525.869 92.802C525.544 92.802 525.978 92.3594 526.447 91.9168C526.953 91.4742 527.531 91.0316 527.531 91.0316L527.495 91.0719C529.446 90.227 528.254 90.0258 529.302 89.4625H529.229C529.013 89.4625 529.41 89.1406 529.771 88.7785C530.133 88.4566 530.458 88.0945 530.133 88.0945C529.952 88.0945 529.482 88.2152 528.688 88.5773C528.94 88.175 529.916 87.8934 531.289 87.0484C529.302 87.7727 527.748 88.2152 527.567 88.2152C527.423 88.2152 528.254 87.8934 530.747 87.0484C530.855 87.0484 530.964 87.0887 531.036 87.0887C531.289 87.0887 531.397 87.0082 531.361 86.9277C531.325 86.8473 531.181 86.807 530.928 86.807C527.351 87.1289 524.677 89.6234 525.472 89.9453C525.941 89.7844 526.267 89.7039 526.483 89.7039C526.953 89.7039 526.736 90.1465 525.797 90.7902C526.23 91.9168 518.57 94.8137 517.703 95.8598C518.137 95.5781 518.426 95.4977 518.57 95.4977C519.148 95.4977 518.39 96.7449 517.631 97.3484C518.101 97.8313 518.462 97.9922 518.751 97.9922C519.51 97.9922 519.835 96.8254 520.485 96.4633C520.63 96.7852 520.774 96.9461 520.955 96.9461C521.569 96.9461 522.328 95.2563 522.942 94.3711C523.123 94.5723 523.34 94.7332 523.629 94.7332C524.207 94.7332 525.074 94.2102 526.447 92.7215C526.158 92.7617 525.941 92.802 525.869 92.802ZM517.559 100.205C516.258 101.09 515.571 101.452 515.282 101.452C514.74 101.452 515.463 100.326 516.113 99.159C516.764 98.0324 517.342 96.9059 516.511 96.9059C516.113 96.9059 515.391 97.1473 514.234 97.791C511.091 100.125 505.779 106.562 503.431 106.562H503.214C507.008 103.464 505.888 97.3887 511.199 95.8195C516.438 92.4801 520.016 93.5262 524.677 89.7039C523.304 90.4684 521.28 91.3133 520.811 91.3133C520.521 91.3133 520.955 90.9109 522.834 89.9051C522.653 89.9453 522.509 89.9855 522.4 89.9855C521.136 89.9855 530.711 86.1633 531.181 86.0828C527.242 86.6863 520.883 90.3477 520.016 90.3477C519.907 90.3477 519.907 90.3074 519.907 90.227C520.052 90.1063 520.052 90.0258 519.907 90.0258C519.438 90.0258 517.486 90.75 515.499 91.4742C513.548 92.1984 511.561 92.9629 511.127 92.9629C510.982 92.9629 510.982 92.8824 511.199 92.7215C494.145 103.504 479.908 121.69 475.464 143.256C477.307 147.963 476.042 156.936 479.077 159.551C482.546 162.81 476.114 172.265 477.812 178.099C479.547 188.64 487.026 195.842 487.821 206.625C489.194 214.028 494.217 223.081 496.312 227.788C497.902 229.559 502.274 234.668 503.033 234.668C503.322 234.668 503.142 233.904 501.985 231.852C501.263 229.559 497.071 223.564 499.095 223.564C499.203 223.564 499.312 223.564 499.456 223.604C496.963 220.788 504.984 221.552 499.384 217.73C498.733 216.845 498.589 216.563 498.733 216.563C498.914 216.563 499.42 216.885 499.998 217.207C500.612 217.529 501.335 217.85 501.913 217.85C502.816 217.85 503.431 217.166 503.069 214.672C503.214 214.752 503.358 214.752 503.467 214.752C504.406 214.752 504.081 212.7 504.153 210.648C504.226 208.596 504.695 206.545 507.225 206.545C507.514 206.545 507.839 206.585 508.164 206.625C514.018 203.084 508.923 193.307 515.644 189.727C515.391 181.599 505.599 181.197 501.913 177.898C501.299 178.3 500.721 178.421 500.143 178.421C499.492 178.421 498.914 178.26 498.408 178.059C497.902 177.898 497.433 177.696 497.107 177.696C497.035 177.696 496.963 177.696 496.891 177.737C503.178 175.886 498.589 166.149 493.386 166.149H493.024C492.627 161.925 490.676 163.534 490.459 160.034C490.134 160.235 489.809 160.315 489.483 160.315C488.616 160.315 487.821 159.631 487.135 158.988C486.448 158.304 485.87 157.66 485.364 157.66C484.967 157.66 484.605 158.102 484.28 159.39C484.642 157.418 484.533 156.775 484.172 156.775C483.811 156.775 483.16 157.459 482.438 158.143C481.751 158.827 480.956 159.511 480.342 159.511H480.161C475.934 156.171 480.197 150.257 477.957 145.71C479.402 143.98 479.98 141.043 479.33 141.043C479.005 141.043 478.354 141.767 477.343 143.739C475.897 139.635 479.728 130.341 482.979 129.818C483.088 129.818 483.16 129.777 483.269 129.777C483.847 129.777 484.425 130.099 484.931 130.783C485.22 132.674 484.497 136.657 484.786 136.657C484.931 136.657 485.22 135.853 485.942 133.761C486.882 128.973 493.458 125.513 494.145 122.575C494.181 122.616 494.181 122.616 494.217 122.616C494.976 122.616 499.854 117.828 501.985 117.305C502.816 116.379 503.395 116.057 503.828 116.057C504.298 116.057 504.551 116.46 504.731 116.822C504.912 117.224 505.057 117.586 505.237 117.586C505.382 117.586 505.562 117.345 505.888 116.661C504.768 114.207 507.658 111.873 506.863 111.873C506.574 111.873 505.707 112.195 503.937 113C503.647 113.161 503.503 113.201 503.431 113.201C503.214 113.201 504.081 112.557 505.346 111.913C506.61 111.27 508.2 110.626 509.537 110.626C510.187 110.626 510.766 110.787 511.199 111.189C516.8 109.7 513.729 107.648 514.018 107.648H514.09C515.68 106.602 515.21 102.659 517.559 100.205ZM492.519 116.661C492.446 116.661 492.771 116.138 493.855 114.649C496.096 112.798 497.902 111.551 495.843 110.344C496.746 109.902 497.613 109.379 498.444 108.815C498.408 110.787 496.927 115.575 496.132 115.575C495.951 115.575 495.771 115.293 495.698 114.689C496.168 113.764 496.204 113.402 496.023 113.402C495.734 113.402 494.903 114.207 494.108 115.052C493.313 115.816 492.591 116.661 492.519 116.661ZM494.578 117.747C493.603 117.747 493.783 117.063 496.782 116.379C498.083 116.178 497.071 116.259 498.625 115.856C497.107 117.224 495.409 117.747 494.578 117.747ZM550.765 113.684C551.198 113.603 551.523 113.603 551.776 113.603C552.824 113.603 552.354 114.086 551.74 114.569C551.126 115.052 550.367 115.534 550.801 115.534C551.054 115.534 551.74 115.373 553.149 114.931C560.268 114.368 550.367 107.648 551.957 105.395L551.523 105.234C548.597 109.379 553.475 109.459 550.765 113.684ZM547.802 113.845C548.308 113.845 548.958 113.201 549.645 111.39C550.584 110.143 550.187 109.982 549.175 109.379C546.393 110.183 546.646 113.845 547.802 113.845ZM572.733 126.599C572.625 126.599 572.553 126.639 572.48 126.679C572.77 126.76 573.059 126.84 573.348 126.84C573.059 126.679 572.878 126.599 572.733 126.599ZM621.26 136.617C621.874 138.106 622.199 138.709 622.235 138.709C622.488 138.709 617.683 125.673 615.695 123.34C605.325 104.349 588.271 89.8246 568.831 84.393H568.795C568.289 84.393 568.867 84.6746 569.554 84.9562C570.24 85.2379 571.071 85.5195 571.071 85.5195C571.071 85.5195 570.529 85.3184 568.867 84.7953C567.024 84.1918 565.146 83.7492 563.23 83.5883C562.905 83.709 571.144 87.3301 576.672 89.2211C574.829 88.5773 572.914 88.0141 572.444 88.0141C572.119 88.0141 572.444 88.2555 573.781 88.8992C572.155 88.3762 571.469 88.1348 571.396 88.1348C571.288 88.1348 573.564 88.9797 575.696 89.8246C577.864 90.6695 579.924 91.5145 579.346 91.5145C579.201 91.5145 578.804 91.434 578.189 91.3133C580.032 92.4398 580.683 92.8824 580.574 92.8824C580.394 92.8824 578.117 91.6754 575.769 90.4684C573.456 89.2613 571.107 88.0543 570.782 88.0543C570.602 88.0543 571.071 88.4566 572.661 89.5027C574.829 90.5488 576.997 91.5949 576.383 91.5949C576.094 91.5949 575.263 91.3938 573.637 90.8707C577.25 92.9227 571.071 92.118 573.167 94.8941C572.011 93.6871 571.541 93.2848 571.433 93.2848C571.324 93.2848 571.613 93.7676 571.902 94.2504C572.191 94.7332 572.408 95.216 572.155 95.216H572.083C574.612 98.2738 570.312 95.5379 573.384 98.2738C571.071 97.107 567.133 95.1758 568.903 95.1758C569.337 95.1758 570.168 95.2965 571.469 95.6184C569.12 92.5605 562.472 92.4398 562.327 92.0777C560.665 92.1984 560.629 93.6066 560.918 96.1816C560.882 100.245 557.305 100.326 557.774 102.659C557.774 102.619 557.811 102.619 557.811 102.619C557.883 102.619 557.919 103.424 558.136 104.269C558.389 105.073 558.822 105.918 559.762 105.918C560.268 105.918 560.918 105.677 561.713 105.073C562.833 107.327 563.845 108.131 564.64 108.131C565.832 108.131 566.555 106.321 566.482 104.671C565.182 103.866 563.483 97.1875 565.362 97.1875C565.651 97.1875 566.013 97.3484 566.482 97.7105C563.556 105.717 578.045 100.366 569.843 104.027C571.686 106.723 568.687 106.602 569.554 109.861C568.145 110.304 566.591 110.706 565.218 110.706C563.194 110.706 561.641 109.741 561.821 106.361C559.292 107.85 564.351 112.879 559.328 112.879H559.039C556.618 117.828 547.549 116.138 554.667 121.368C555.064 123.662 553.764 124.064 552.102 124.064C551.668 124.064 551.198 124.024 550.729 123.984C550.259 123.943 549.789 123.943 549.355 123.943C547.477 123.943 546.14 124.466 547.296 127.725C546.465 131.105 548.416 132.594 550.801 132.594C553.691 132.594 557.232 130.502 557.485 127.041C559.039 124.426 561.026 123.34 563.086 123.34C566.338 123.34 569.771 126.076 572.011 129.455C572.191 129.777 572.336 129.898 572.408 129.898C572.589 129.898 572.408 129.093 572.336 128.289C572.264 127.645 572.264 127.001 572.48 126.8C569.265 125.794 566.808 121.449 567.892 121.449C568.253 121.449 569.012 121.932 570.24 123.219H570.421C572.444 123.219 574.034 124.989 575.263 126.76C576.527 128.53 577.467 130.3 578.298 130.3C578.623 130.3 578.948 129.979 579.237 129.254C579.093 129.013 578.731 128.329 578.551 127.645C578.334 126.8 578.334 125.955 579.31 125.955C579.707 125.955 580.249 126.116 581.008 126.438C583.465 125.714 579.454 118.592 582.706 118.592C583.031 118.592 583.429 118.673 583.935 118.834C583.898 120.081 584.404 120.523 584.874 120.523C585.813 120.523 586.753 119.035 584.477 118.592C585.344 117.667 585.85 117.305 586.211 117.305C587.476 117.305 586.464 121.972 590.836 121.972C592.317 125.875 577.973 122.254 582.562 129.737C583.609 130.582 584.91 130.743 586.175 130.743C586.572 130.743 586.934 130.743 587.295 130.703C587.656 130.703 588.018 130.662 588.343 130.662C590.583 130.662 592.173 131.266 591.197 136.416C590.005 137.382 588.668 137.704 587.295 137.704C586.066 137.704 584.838 137.462 583.646 137.221C582.453 136.979 581.297 136.738 580.249 136.738C578.623 136.738 577.322 137.341 576.527 139.434C572.3 137.502 566.735 137.422 567.277 131.588C559.906 132.755 552.21 132.151 546.79 137.18C546.465 144.543 535.119 146.917 537.865 155.286C534.577 163.011 541.84 173.834 549.247 173.834C549.5 173.834 549.789 173.834 550.042 173.794C554.089 173.754 558.172 171.742 561.749 171.742C563.592 171.742 565.254 172.265 566.699 173.874C567.024 173.834 567.313 173.794 567.566 173.794C573.095 173.794 565.796 183.571 572.408 185.22C578.406 192.141 568.723 199.262 573.456 205.901C573.962 211.091 576.274 215.436 576.274 220.506C576.889 220.586 577.467 220.627 578.081 220.627C585.705 220.627 590.475 213.223 594.955 207.631C593.582 199.262 605.614 197.613 601.495 188.238C599.58 177.978 610.564 171.903 609.95 161.643C610.059 160.195 609.697 159.752 609.155 159.752C608.613 159.752 607.818 160.195 607.06 160.597C606.265 161.039 605.397 161.442 604.711 161.442C603.808 161.442 603.121 160.758 603.049 158.505C597.737 152.993 595.316 145.509 590.366 139.434C596.798 142.894 600.447 150.699 603.41 157.78C603.663 157.861 603.916 157.901 604.205 157.901C609.444 157.901 616.743 143.94 608.794 140.56C608.36 141.888 607.782 142.371 607.096 142.371C605.903 142.371 604.53 140.761 603.555 139.192C602.579 137.583 602.073 135.973 602.615 135.973C602.977 135.973 603.771 136.617 605.145 138.307C606.698 139.393 608.216 139.675 609.806 139.675C611.359 139.675 612.949 139.393 614.611 139.232C616.707 140.158 617.61 143.135 618.261 143.135C618.369 143.135 618.514 143.014 618.622 142.733C620.284 147.159 622.199 155.045 623.934 157.177C623.03 150.418 622.813 143.256 621.26 136.617ZM601.098 127.323C597.015 126.156 595.678 120.523 592.462 117.264C592.426 116.379 593.618 116.54 593.329 115.052C597.665 116.54 596.256 118.029 595.858 118.311C597.448 121.248 601.893 123.259 601.098 127.323ZM544.983 96.7047C541.045 97.9922 540.503 96.584 541.189 99.2797C541.479 99.5211 542.021 99.6016 542.562 99.6016C544.478 99.6418 547.079 98.3945 544.983 96.7047ZM602.832 207.55C607.999 202.682 608.649 196.888 608.902 191.014C606.59 196.043 599.725 201.596 602.832 207.55ZM579.31 129.093C579.273 129.134 579.273 129.134 579.273 129.174C579.31 129.254 579.346 129.254 579.346 129.254C579.346 129.254 579.346 129.214 579.31 129.093ZM549.5 65C498.408 65 457 111.109 457 168C457 224.891 498.408 271 549.5 271C600.592 271 642 224.891 642 168C642 111.109 600.592 65 549.5 65ZM549.5 263.074C502.347 263.074 464.118 220.506 464.118 168C464.118 115.494 502.347 72.9262 549.5 72.9262C596.653 72.9262 634.882 115.494 634.882 168C634.882 220.506 596.653 263.074 549.5 263.074Z" fill="#9676A1"/>
<path d="M47.6074 246.633C37.9395 237.16 30.2246 225.734 24.4629 212.355C18.7988 198.879 15.9668 184.23 15.9668 168.41C15.9668 152.492 18.6523 138.234 24.0234 125.637C29.4922 112.941 37.0117 101.955 46.582 92.6777C67.0898 72.9512 92.8223 63.0879 123.779 63.0879C154.541 63.0879 179.736 72.8047 199.365 92.2383C219.287 111.965 229.248 137.551 229.248 168.996C229.248 200.344 219.043 226.125 198.633 246.34C185.84 258.84 170.117 267.482 151.465 272.268C142.188 274.611 131.396 275.783 119.092 275.783C106.885 275.783 94.3359 273.293 81.4453 268.312C68.5547 263.234 57.2754 256.008 47.6074 246.633ZM123.633 73.7812C118.262 73.7812 113.232 74.1719 108.545 74.9531V263.918C113.037 264.699 118.066 265.09 123.633 265.09C149.707 265.09 171.68 256.398 189.551 239.016C208.203 220.949 217.529 197.609 217.529 168.996C217.529 141.75 208.789 119.094 191.309 101.027C173.633 82.8633 151.074 73.7812 123.633 73.7812ZM271.143 262.453C267.725 260.5 264.746 258.449 262.207 256.301C259.766 254.152 258.545 251.857 258.545 249.416C258.545 244.729 260.547 242.385 264.551 242.385C267.188 242.385 270.117 243.85 273.34 246.779C276.562 249.709 280.176 252.297 284.18 254.543C288.184 256.691 292.529 258.547 297.217 260.109C306.885 263.332 315.82 264.943 324.023 264.943C332.227 264.943 338.525 264.406 342.92 263.332C347.412 262.258 351.172 260.793 354.199 258.938C360.645 254.934 363.867 249.807 363.867 243.557C363.867 237.795 361.084 231.984 355.518 226.125C350.83 221.145 344.189 215.188 335.596 208.254L310.547 188.625C285.449 169.289 270.654 151.613 266.162 135.598C264.6 130.031 263.818 123.83 263.818 116.994C263.818 110.158 265.332 103.42 268.359 96.7793C271.484 90.1387 276.074 84.3281 282.129 79.3477C295.117 68.5078 312.793 63.0879 335.156 63.0879C346.582 63.0879 356.836 64.7969 365.918 68.2148C375 71.5352 381.201 74.5137 384.521 77.1504C387.842 79.7871 389.502 82.1797 389.502 84.3281C389.502 88.8203 387.646 91.0664 383.936 91.0664C381.787 91.0664 379.492 89.9922 377.051 87.8438C374.609 85.6953 371.875 83.8398 368.848 82.2773C365.918 80.6172 362.549 79.1523 358.74 77.8828C350.537 75.1484 342.48 73.7812 334.57 73.7812C320.02 73.7812 312.744 78.5664 312.744 88.1367C312.744 92.1406 314.062 95.8516 316.699 99.2695C321.387 105.227 330.518 113.771 344.092 124.904C357.764 135.939 368.701 145.607 376.904 153.908C385.205 162.209 391.504 169.68 395.801 176.32C402.637 186.77 406.055 197.658 406.055 208.986C406.055 220.217 404.053 229.787 400.049 237.697C396.143 245.51 390.625 252.248 383.496 257.912C368.457 269.826 349.805 275.783 327.539 275.783C305.273 275.783 286.475 271.34 271.143 262.453ZM467.139 246.633C457.471 237.16 449.756 225.734 443.994 212.355C438.33 198.879 435.498 184.23 435.498 168.41C435.498 152.492 438.184 138.234 443.555 125.637C449.023 112.941 456.543 101.955 466.113 92.6777C486.621 72.9512 512.354 63.0879 543.311 63.0879C574.072 63.0879 599.268 72.8047 618.896 92.2383C638.818 111.965 648.779 137.551 648.779 168.996C648.779 200.344 638.574 226.125 618.164 246.34C605.371 258.84 589.648 267.482 570.996 272.268C561.719 274.611 550.928 275.783 538.623 275.783C526.416 275.783 513.867 273.293 500.977 268.312C488.086 263.234 476.807 256.008 467.139 246.633ZM543.164 73.7812C537.793 73.7812 532.764 74.1719 528.076 74.9531V263.918C532.568 264.699 537.598 265.09 543.164 265.09C569.238 265.09 591.211 256.398 609.082 239.016C627.734 220.949 637.061 197.609 637.061 168.996C637.061 141.75 628.32 119.094 610.84 101.027C593.164 82.8633 570.605 73.7812 543.164 73.7812ZM690.674 262.453C687.256 260.5 684.277 258.449 681.738 256.301C679.297 254.152 678.076 251.857 678.076 249.416C678.076 244.729 680.078 242.385 684.082 242.385C686.719 242.385 689.648 243.85 692.871 246.779C696.094 249.709 699.707 252.297 703.711 254.543C707.715 256.691 712.061 258.547 716.748 260.109C726.416 263.332 735.352 264.943 743.555 264.943C751.758 264.943 758.057 264.406 762.451 263.332C766.943 262.258 770.703 260.793 773.73 258.938C780.176 254.934 783.398 249.807 783.398 243.557C783.398 237.795 780.615 231.984 775.049 226.125C770.361 221.145 763.721 215.188 755.127 208.254L730.078 188.625C704.98 169.289 690.186 151.613 685.693 135.598C684.131 130.031 683.35 123.83 683.35 116.994C683.35 110.158 684.863 103.42 687.891 96.7793C691.016 90.1387 695.605 84.3281 701.66 79.3477C714.648 68.5078 732.324 63.0879 754.688 63.0879C766.113 63.0879 776.367 64.7969 785.449 68.2148C794.531 71.5352 800.732 74.5137 804.053 77.1504C807.373 79.7871 809.033 82.1797 809.033 84.3281C809.033 88.8203 807.178 91.0664 803.467 91.0664C801.318 91.0664 799.023 89.9922 796.582 87.8438C794.141 85.6953 791.406 83.8398 788.379 82.2773C785.449 80.6172 782.08 79.1523 778.271 77.8828C770.068 75.1484 762.012 73.7812 754.102 73.7812C739.551 73.7812 732.275 78.5664 732.275 88.1367C732.275 92.1406 733.594 95.8516 736.23 99.2695C740.918 105.227 750.049 113.771 763.623 124.904C777.295 135.939 788.232 145.607 796.436 153.908C804.736 162.209 811.035 169.68 815.332 176.32C822.168 186.77 825.586 197.658 825.586 208.986C825.586 220.217 823.584 229.787 819.58 237.697C815.674 245.51 810.156 252.248 803.027 257.912C787.988 269.826 769.336 275.783 747.07 275.783C724.805 275.783 706.006 271.34 690.674 262.453Z" fill="#9676A1"/>
<path d="M181.524 174.9L170.332 177.31L179.38 190.708C180.009 191.636 179.786 192.877 178.941 193.511L174.252 196.938C173.378 197.578 172.187 197.318 171.565 196.421L162.969 183.699L155.896 195.281C154.953 196.824 152.765 196.262 152.403 194.582L142.425 148.243C142.044 146.474 143.96 145.16 145.321 146.169L182.119 171.257C183.589 172.202 183.16 174.548 181.524 174.9Z" fill="#9676A1"/>
<rect x="31" y="333" width="798" height="37" fill="#8CC63F"/>
<path d="M50.508 451V434.08L43.92 446.68H41.22L34.632 434.08V451H29.664V425.44H34.992L42.552 439.984L50.184 425.44H55.476V451H50.508ZM80.7967 451.36C79.8847 451.36 79.0327 451.216 78.2407 450.928C77.4487 450.616 76.7647 450.196 76.1887 449.668C75.6127 449.116 75.1567 448.48 74.8207 447.76C74.5087 447.04 74.3527 446.248 74.3527 445.384C74.3527 444.496 74.5447 443.68 74.9287 442.936C75.3367 442.168 75.8887 441.52 76.5847 440.992C77.3047 440.464 78.1567 440.056 79.1407 439.768C80.1247 439.456 81.2047 439.3 82.3807 439.3C83.2207 439.3 84.0367 439.372 84.8287 439.516C85.6447 439.66 86.3647 439.864 86.9887 440.128V439.048C86.9887 437.8 86.6287 436.84 85.9087 436.168C85.2127 435.496 84.1687 435.16 82.7767 435.16C81.7687 435.16 80.7847 435.34 79.8247 435.7C78.8647 436.06 77.8807 436.588 76.8727 437.284L75.3967 434.224C77.8207 432.616 80.4367 431.812 83.2447 431.812C85.9567 431.812 88.0567 432.484 89.5447 433.828C91.0567 435.148 91.8127 437.068 91.8127 439.588V445.456C91.8127 445.96 91.8967 446.32 92.0647 446.536C92.2567 446.752 92.5567 446.872 92.9647 446.896V451C92.1487 451.168 91.4407 451.252 90.8407 451.252C89.9287 451.252 89.2207 451.048 88.7167 450.64C88.2367 450.232 87.9367 449.692 87.8167 449.02L87.7087 447.976C86.8687 449.08 85.8487 449.92 84.6487 450.496C83.4487 451.072 82.1647 451.36 80.7967 451.36ZM82.1647 447.832C82.9807 447.832 83.7487 447.688 84.4687 447.4C85.2127 447.112 85.7887 446.728 86.1967 446.248C86.7247 445.84 86.9887 445.384 86.9887 444.88V442.72C86.4127 442.504 85.7887 442.336 85.1167 442.216C84.4447 442.072 83.7967 442 83.1727 442C81.9247 442 80.9047 442.288 80.1127 442.864C79.3207 443.416 78.9247 444.124 78.9247 444.988C78.9247 445.804 79.2367 446.488 79.8607 447.04C80.4847 447.568 81.2527 447.832 82.1647 447.832ZM124.689 451L119.217 442.828L116.625 445.384V451H111.801V424.72H116.625V440.668L124.185 432.172H129.333L122.313 440.164L129.837 451H124.689ZM147.355 451V432.136H152.179V451H147.355ZM147.355 429.508V424.72H152.179V429.508H147.355ZM189.543 451H184.719V440.416C184.719 438.904 184.455 437.8 183.927 437.104C183.399 436.408 182.667 436.06 181.731 436.06C181.251 436.06 180.759 436.156 180.255 436.348C179.751 436.54 179.271 436.816 178.815 437.176C178.383 437.512 177.987 437.92 177.627 438.4C177.267 438.88 177.003 439.408 176.835 439.984V451H172.011V432.136H176.367V435.628C177.063 434.428 178.071 433.492 179.391 432.82C180.711 432.148 182.199 431.812 183.855 431.812C185.031 431.812 185.991 432.028 186.735 432.46C187.479 432.892 188.055 433.456 188.463 434.152C188.871 434.848 189.147 435.64 189.291 436.528C189.459 437.416 189.543 438.316 189.543 439.228V451ZM216.597 451.108C215.325 451.108 214.173 450.856 213.141 450.352C212.109 449.848 211.209 449.164 210.441 448.3C209.697 447.412 209.121 446.392 208.713 445.24C208.305 444.088 208.101 442.864 208.101 441.568C208.101 440.2 208.317 438.928 208.749 437.752C209.181 436.576 209.781 435.544 210.549 434.656C211.317 433.768 212.241 433.072 213.321 432.568C214.401 432.064 215.589 431.812 216.885 431.812C218.349 431.812 219.633 432.148 220.737 432.82C221.841 433.468 222.753 434.344 223.473 435.448V432.136H227.685V450.1C227.685 451.492 227.421 452.74 226.893 453.844C226.365 454.948 225.633 455.884 224.697 456.652C223.785 457.42 222.681 458.008 221.385 458.416C220.113 458.824 218.721 459.028 217.209 459.028C215.145 459.028 213.405 458.68 211.989 457.984C210.597 457.312 209.397 456.352 208.389 455.104L211.017 452.548C211.737 453.436 212.637 454.132 213.717 454.636C214.821 455.14 215.985 455.392 217.209 455.392C217.953 455.392 218.661 455.284 219.333 455.068C220.029 454.876 220.641 454.564 221.169 454.132C221.697 453.7 222.105 453.148 222.393 452.476C222.705 451.804 222.861 451.012 222.861 450.1V447.724C222.237 448.804 221.361 449.644 220.233 450.244C219.105 450.82 217.893 451.108 216.597 451.108ZM218.217 447.256C218.745 447.256 219.249 447.172 219.729 447.004C220.209 446.836 220.653 446.608 221.061 446.32C221.469 446.032 221.829 445.696 222.141 445.312C222.453 444.928 222.693 444.52 222.861 444.088V439.588C222.429 438.484 221.745 437.596 220.809 436.924C219.897 436.252 218.937 435.916 217.929 435.916C217.185 435.916 216.513 436.084 215.913 436.42C215.313 436.732 214.797 437.164 214.365 437.716C213.933 438.244 213.597 438.856 213.357 439.552C213.141 440.248 213.033 440.968 213.033 441.712C213.033 442.48 213.165 443.2 213.429 443.872C213.693 444.544 214.053 445.132 214.509 445.636C214.989 446.14 215.541 446.536 216.165 446.824C216.789 447.112 217.473 447.256 218.217 447.256ZM290.206 429.796H282.034V451H277.102V429.796H268.93V425.44H290.206V429.796ZM313.026 451.36C311.514 451.36 310.146 451.108 308.922 450.604C307.698 450.076 306.654 449.368 305.79 448.48C304.926 447.592 304.254 446.56 303.774 445.384C303.318 444.208 303.09 442.972 303.09 441.676C303.09 440.332 303.318 439.072 303.774 437.896C304.23 436.696 304.89 435.652 305.754 434.764C306.618 433.852 307.662 433.132 308.886 432.604C310.134 432.076 311.526 431.812 313.062 431.812C314.598 431.812 315.966 432.076 317.166 432.604C318.39 433.132 319.422 433.84 320.262 434.728C321.126 435.616 321.774 436.648 322.206 437.824C322.662 439 322.89 440.224 322.89 441.496C322.89 441.808 322.878 442.108 322.854 442.396C322.854 442.684 322.83 442.924 322.782 443.116H308.202C308.274 443.86 308.454 444.52 308.742 445.096C309.03 445.672 309.402 446.164 309.858 446.572C310.314 446.98 310.83 447.292 311.406 447.508C311.982 447.724 312.582 447.832 313.206 447.832C314.166 447.832 315.066 447.604 315.906 447.148C316.77 446.668 317.358 446.044 317.67 445.276L321.81 446.428C321.114 447.868 319.998 449.056 318.462 449.992C316.95 450.904 315.138 451.36 313.026 451.36ZM317.922 439.984C317.802 438.568 317.274 437.44 316.338 436.6C315.426 435.736 314.31 435.304 312.99 435.304C312.342 435.304 311.73 435.424 311.154 435.664C310.602 435.88 310.11 436.192 309.678 436.6C309.246 437.008 308.886 437.5 308.598 438.076C308.334 438.652 308.178 439.288 308.13 439.984H317.922ZM340.121 441.568C340.121 440.248 340.349 439 340.805 437.824C341.261 436.648 341.921 435.616 342.785 434.728C343.649 433.84 344.693 433.132 345.917 432.604C347.141 432.076 348.521 431.812 350.057 431.812C352.121 431.812 353.873 432.256 355.313 433.144C356.777 434.032 357.869 435.196 358.589 436.636L353.873 438.076C353.465 437.38 352.925 436.852 352.253 436.492C351.581 436.108 350.837 435.916 350.021 435.916C349.325 435.916 348.677 436.06 348.077 436.348C347.477 436.612 346.949 436.996 346.493 437.5C346.061 437.98 345.713 438.568 345.449 439.264C345.209 439.96 345.089 440.728 345.089 441.568C345.089 442.408 345.221 443.176 345.485 443.872C345.749 444.568 346.097 445.168 346.529 445.672C346.985 446.176 347.513 446.572 348.113 446.86C348.713 447.124 349.349 447.256 350.021 447.256C350.885 447.256 351.677 447.04 352.397 446.608C353.141 446.176 353.657 445.648 353.945 445.024L358.661 446.464C358.013 447.904 356.945 449.08 355.457 449.992C353.969 450.904 352.181 451.36 350.093 451.36C348.557 451.36 347.177 451.096 345.953 450.568C344.729 450.04 343.685 449.332 342.821 448.444C341.957 447.532 341.285 446.488 340.805 445.312C340.349 444.112 340.121 442.864 340.121 441.568ZM394.641 451H389.817V440.416C389.817 438.928 389.541 437.836 388.989 437.14C388.437 436.42 387.657 436.06 386.649 436.06C386.217 436.06 385.761 436.156 385.281 436.348C384.801 436.54 384.345 436.816 383.913 437.176C383.481 437.512 383.085 437.92 382.725 438.4C382.365 438.88 382.101 439.408 381.933 439.984V451H377.109V424.72H381.933V435.628C382.629 434.404 383.565 433.468 384.741 432.82C385.941 432.148 387.261 431.812 388.701 431.812C389.925 431.812 390.921 432.028 391.689 432.46C392.457 432.868 393.057 433.42 393.489 434.116C393.921 434.812 394.221 435.604 394.389 436.492C394.557 437.38 394.641 438.292 394.641 439.228V451ZM431.848 451H427.024V440.416C427.024 438.904 426.76 437.8 426.232 437.104C425.704 436.408 424.972 436.06 424.036 436.06C423.556 436.06 423.064 436.156 422.56 436.348C422.056 436.54 421.576 436.816 421.12 437.176C420.688 437.512 420.292 437.92 419.932 438.4C419.572 438.88 419.308 439.408 419.14 439.984V451H414.316V432.136H418.672V435.628C419.368 434.428 420.376 433.492 421.696 432.82C423.016 432.148 424.504 431.812 426.16 431.812C427.336 431.812 428.296 432.028 429.04 432.46C429.784 432.892 430.36 433.456 430.768 434.152C431.176 434.848 431.452 435.64 431.596 436.528C431.764 437.416 431.848 438.316 431.848 439.228V451ZM460.234 451.36C458.698 451.36 457.318 451.096 456.094 450.568C454.87 450.04 453.826 449.332 452.962 448.444C452.122 447.532 451.474 446.488 451.018 445.312C450.562 444.136 450.334 442.9 450.334 441.604C450.334 440.284 450.562 439.036 451.018 437.86C451.474 436.684 452.122 435.652 452.962 434.764C453.826 433.852 454.87 433.132 456.094 432.604C457.318 432.076 458.698 431.812 460.234 431.812C461.77 431.812 463.138 432.076 464.338 432.604C465.562 433.132 466.594 433.852 467.434 434.764C468.298 435.652 468.958 436.684 469.414 437.86C469.87 439.036 470.098 440.284 470.098 441.604C470.098 442.9 469.87 444.136 469.414 445.312C468.958 446.488 468.31 447.532 467.47 448.444C466.63 449.332 465.598 450.04 464.374 450.568C463.15 451.096 461.77 451.36 460.234 451.36ZM455.302 441.604C455.302 442.444 455.422 443.212 455.662 443.908C455.926 444.58 456.274 445.168 456.706 445.672C457.162 446.176 457.69 446.572 458.29 446.86C458.89 447.124 459.538 447.256 460.234 447.256C460.93 447.256 461.578 447.124 462.178 446.86C462.778 446.572 463.294 446.176 463.726 445.672C464.182 445.168 464.53 444.568 464.77 443.872C465.034 443.176 465.166 442.408 465.166 441.568C465.166 440.752 465.034 439.996 464.77 439.3C464.53 438.604 464.182 438.004 463.726 437.5C463.294 436.996 462.778 436.612 462.178 436.348C461.578 436.06 460.93 435.916 460.234 435.916C459.538 435.916 458.89 436.06 458.29 436.348C457.69 436.636 457.162 437.032 456.706 437.536C456.274 438.04 455.926 438.64 455.662 439.336C455.422 440.032 455.302 440.788 455.302 441.604ZM488.798 424.72H493.622V444.952C493.622 445.648 493.79 446.188 494.126 446.572C494.462 446.956 494.942 447.148 495.566 447.148C495.854 447.148 496.166 447.1 496.502 447.004C496.862 446.908 497.198 446.788 497.51 446.644L498.158 450.316C497.51 450.628 496.754 450.868 495.89 451.036C495.026 451.204 494.246 451.288 493.55 451.288C492.038 451.288 490.862 450.892 490.022 450.1C489.206 449.284 488.798 448.132 488.798 446.644V424.72ZM524.452 451.36C522.916 451.36 521.536 451.096 520.312 450.568C519.088 450.04 518.044 449.332 517.18 448.444C516.34 447.532 515.692 446.488 515.236 445.312C514.78 444.136 514.552 442.9 514.552 441.604C514.552 440.284 514.78 439.036 515.236 437.86C515.692 436.684 516.34 435.652 517.18 434.764C518.044 433.852 519.088 433.132 520.312 432.604C521.536 432.076 522.916 431.812 524.452 431.812C525.988 431.812 527.356 432.076 528.556 432.604C529.78 433.132 530.812 433.852 531.652 434.764C532.516 435.652 533.176 436.684 533.632 437.86C534.088 439.036 534.316 440.284 534.316 441.604C534.316 442.9 534.088 444.136 533.632 445.312C533.176 446.488 532.528 447.532 531.688 448.444C530.848 449.332 529.816 450.04 528.592 450.568C527.368 451.096 525.988 451.36 524.452 451.36ZM519.52 441.604C519.52 442.444 519.64 443.212 519.88 443.908C520.144 444.58 520.492 445.168 520.924 445.672C521.38 446.176 521.908 446.572 522.508 446.86C523.108 447.124 523.756 447.256 524.452 447.256C525.148 447.256 525.796 447.124 526.396 446.86C526.996 446.572 527.512 446.176 527.944 445.672C528.4 445.168 528.748 444.568 528.988 443.872C529.252 443.176 529.384 442.408 529.384 441.568C529.384 440.752 529.252 439.996 528.988 439.3C528.748 438.604 528.4 438.004 527.944 437.5C527.512 436.996 526.996 436.612 526.396 436.348C525.796 436.06 525.148 435.916 524.452 435.916C523.756 435.916 523.108 436.06 522.508 436.348C521.908 436.636 521.38 437.032 520.924 437.536C520.492 438.04 520.144 438.64 519.88 439.336C519.64 440.032 519.52 440.788 519.52 441.604ZM560.432 451.108C559.16 451.108 558.008 450.856 556.976 450.352C555.944 449.848 555.044 449.164 554.276 448.3C553.532 447.412 552.956 446.392 552.548 445.24C552.14 444.088 551.936 442.864 551.936 441.568C551.936 440.2 552.152 438.928 552.584 437.752C553.016 436.576 553.616 435.544 554.384 434.656C555.152 433.768 556.076 433.072 557.156 432.568C558.236 432.064 559.424 431.812 560.72 431.812C562.184 431.812 563.468 432.148 564.572 432.82C565.676 433.468 566.588 434.344 567.308 435.448V432.136H571.52V450.1C571.52 451.492 571.256 452.74 570.728 453.844C570.2 454.948 569.468 455.884 568.532 456.652C567.62 457.42 566.516 458.008 565.22 458.416C563.948 458.824 562.556 459.028 561.044 459.028C558.98 459.028 557.24 458.68 555.824 457.984C554.432 457.312 553.232 456.352 552.224 455.104L554.852 452.548C555.572 453.436 556.472 454.132 557.552 454.636C558.656 455.14 559.82 455.392 561.044 455.392C561.788 455.392 562.496 455.284 563.168 455.068C563.864 454.876 564.476 454.564 565.004 454.132C565.532 453.7 565.94 453.148 566.228 452.476C566.54 451.804 566.696 451.012 566.696 450.1V447.724C566.072 448.804 565.196 449.644 564.068 450.244C562.94 450.82 561.728 451.108 560.432 451.108ZM562.052 447.256C562.58 447.256 563.084 447.172 563.564 447.004C564.044 446.836 564.488 446.608 564.896 446.32C565.304 446.032 565.664 445.696 565.976 445.312C566.288 444.928 566.528 444.52 566.696 444.088V439.588C566.264 438.484 565.58 437.596 564.644 436.924C563.732 436.252 562.772 435.916 561.764 435.916C561.02 435.916 560.348 436.084 559.748 436.42C559.148 436.732 558.632 437.164 558.2 437.716C557.768 438.244 557.432 438.856 557.192 439.552C556.976 440.248 556.868 440.968 556.868 441.712C556.868 442.48 557 443.2 557.264 443.872C557.528 444.544 557.888 445.132 558.344 445.636C558.824 446.14 559.376 446.536 560 446.824C560.624 447.112 561.308 447.256 562.052 447.256ZM591.745 454.672C592.153 454.792 592.549 454.876 592.933 454.924C593.317 454.996 593.641 455.032 593.905 455.032C594.217 455.032 594.505 454.972 594.769 454.852C595.033 454.732 595.273 454.516 595.489 454.204C595.705 453.916 595.921 453.508 596.137 452.98C596.353 452.452 596.581 451.792 596.821 451L589.369 432.136H594.337L599.449 446.824L603.985 432.136H608.521L600.601 454.744C600.145 456.064 599.365 457.144 598.261 457.984C597.157 458.824 595.789 459.244 594.157 459.244C593.773 459.244 593.377 459.208 592.969 459.136C592.585 459.088 592.177 458.992 591.745 458.848V454.672ZM661.034 446.788C662.21 446.788 663.194 446.548 663.986 446.068C664.802 445.588 665.45 444.964 665.93 444.196C666.434 443.428 666.782 442.552 666.974 441.568C667.19 440.56 667.298 439.528 667.298 438.472V425.44H672.23V438.472C672.23 440.224 672.014 441.868 671.582 443.404C671.174 444.94 670.514 446.284 669.602 447.436C668.714 448.588 667.562 449.5 666.146 450.172C664.73 450.844 663.038 451.18 661.07 451.18C659.03 451.18 657.29 450.832 655.85 450.136C654.434 449.416 653.282 448.48 652.394 447.328C651.506 446.152 650.858 444.796 650.45 443.26C650.066 441.724 649.874 440.128 649.874 438.472V425.44H654.842V438.472C654.842 439.552 654.938 440.596 655.13 441.604C655.346 442.588 655.694 443.464 656.174 444.232C656.678 445 657.326 445.624 658.118 446.104C658.91 446.56 659.882 446.788 661.034 446.788ZM698.952 451.36C697.368 451.36 695.82 451.108 694.308 450.604C692.796 450.1 691.5 449.38 690.42 448.444L692.22 445.42C693.372 446.236 694.488 446.86 695.568 447.292C696.672 447.7 697.764 447.904 698.844 447.904C699.804 447.904 700.56 447.724 701.112 447.364C701.664 447.004 701.94 446.488 701.94 445.816C701.94 445.144 701.616 444.652 700.968 444.34C700.32 444.028 699.264 443.668 697.8 443.26C696.576 442.924 695.532 442.6 694.668 442.288C693.804 441.976 693.108 441.628 692.58 441.244C692.052 440.836 691.668 440.38 691.428 439.876C691.188 439.348 691.068 438.724 691.068 438.004C691.068 437.044 691.248 436.18 691.608 435.412C691.992 434.644 692.52 433.996 693.192 433.468C693.864 432.916 694.644 432.496 695.532 432.208C696.444 431.92 697.428 431.776 698.484 431.776C699.9 431.776 701.22 431.98 702.444 432.388C703.692 432.796 704.832 433.456 705.864 434.368L703.92 437.284C702.96 436.564 702.024 436.036 701.112 435.7C700.224 435.364 699.336 435.196 698.448 435.196C697.632 435.196 696.948 435.364 696.396 435.7C695.844 436.036 695.568 436.576 695.568 437.32C695.568 437.656 695.628 437.932 695.748 438.148C695.892 438.364 696.108 438.556 696.396 438.724C696.684 438.892 697.056 439.06 697.512 439.228C697.992 439.372 698.58 439.528 699.276 439.696C700.572 440.032 701.676 440.368 702.588 440.704C703.524 441.04 704.28 441.424 704.856 441.856C705.456 442.288 705.888 442.792 706.152 443.368C706.44 443.92 706.584 444.592 706.584 445.384C706.584 447.232 705.9 448.696 704.532 449.776C703.164 450.832 701.304 451.36 698.952 451.36ZM733.946 451.36C732.434 451.36 731.066 451.108 729.842 450.604C728.618 450.076 727.574 449.368 726.71 448.48C725.846 447.592 725.174 446.56 724.694 445.384C724.238 444.208 724.01 442.972 724.01 441.676C724.01 440.332 724.238 439.072 724.694 437.896C725.15 436.696 725.81 435.652 726.674 434.764C727.538 433.852 728.582 433.132 729.806 432.604C731.054 432.076 732.446 431.812 733.982 431.812C735.518 431.812 736.886 432.076 738.086 432.604C739.31 433.132 740.342 433.84 741.182 434.728C742.046 435.616 742.694 436.648 743.126 437.824C743.582 439 743.81 440.224 743.81 441.496C743.81 441.808 743.798 442.108 743.774 442.396C743.774 442.684 743.75 442.924 743.702 443.116H729.122C729.194 443.86 729.374 444.52 729.662 445.096C729.95 445.672 730.322 446.164 730.778 446.572C731.234 446.98 731.75 447.292 732.326 447.508C732.902 447.724 733.502 447.832 734.126 447.832C735.086 447.832 735.986 447.604 736.826 447.148C737.69 446.668 738.278 446.044 738.59 445.276L742.73 446.428C742.034 447.868 740.918 449.056 739.382 449.992C737.87 450.904 736.058 451.36 733.946 451.36ZM738.842 439.984C738.722 438.568 738.194 437.44 737.258 436.6C736.346 435.736 735.23 435.304 733.91 435.304C733.262 435.304 732.65 435.424 732.074 435.664C731.522 435.88 731.03 436.192 730.598 436.6C730.166 437.008 729.806 437.5 729.518 438.076C729.254 438.652 729.098 439.288 729.05 439.984H738.842ZM763.205 451V436.816H760.721V433.144H763.205V431.992C763.205 429.64 763.769 427.78 764.897 426.412C766.025 425.044 767.561 424.36 769.505 424.36C771.041 424.36 772.589 424.732 774.149 425.476L773.177 429.112C772.817 428.92 772.385 428.764 771.881 428.644C771.401 428.5 770.957 428.428 770.549 428.428C768.869 428.428 768.029 429.556 768.029 431.812V433.144H772.637V436.816H768.029V451H763.205ZM796.618 451.36C794.674 451.36 793.198 450.736 792.19 449.488C791.182 448.24 790.678 446.392 790.678 443.944V432.136H795.502V442.9C795.502 445.804 796.546 447.256 798.634 447.256C799.57 447.256 800.47 446.98 801.334 446.428C802.222 445.852 802.942 444.988 803.494 443.836V432.136H808.318V445.456C808.318 445.96 808.402 446.32 808.57 446.536C808.762 446.752 809.062 446.872 809.47 446.896V451C808.99 451.096 808.582 451.156 808.246 451.18C807.934 451.204 807.646 451.216 807.382 451.216C806.518 451.216 805.81 451.024 805.258 450.64C804.73 450.232 804.418 449.68 804.322 448.984L804.214 447.472C803.374 448.768 802.294 449.74 800.974 450.388C799.654 451.036 798.202 451.36 796.618 451.36ZM828.555 424.72H833.379V444.952C833.379 445.648 833.547 446.188 833.883 446.572C834.219 446.956 834.699 447.148 835.323 447.148C835.611 447.148 835.923 447.1 836.259 447.004C836.619 446.908 836.955 446.788 837.267 446.644L837.915 450.316C837.267 450.628 836.511 450.868 835.647 451.036C834.783 451.204 834.003 451.288 833.307 451.288C831.795 451.288 830.619 450.892 829.779 450.1C828.963 449.284 828.555 448.132 828.555 446.644V424.72Z" fill="#666666"/>
<path d="M797 25V29H802.493V42.0667H806.493V29H811.987V25H797Z" fill="#666666"/>
<path d="M824.999 25L821.479 32.04L818.013 25H814.013V42.0667H818.013V35.0267L821.479 42.0667L824.999 35.0267V42.0667H828.999V25H824.999Z" fill="#666666"/>
</svg>
